<svg width="44" height="32" viewBox="0 0 44 32" fill="none" xmlns="http://www.w3.org/2000/svg">
<path d="M0.252823 10.0167C0.468002 9.74833 0.789085 9.5917 1.12594 9.5917H5.40814C6.46489 6.74244 7.8416 3.95076 9.40644 2.89697C14.8198 -0.74349 29.1783 -0.74349 34.5916 2.89697C36.1575 3.95191 37.5286 6.74705 38.591 9.5917H42.8732C43.2134 9.5917 43.5334 9.74833 43.7463 10.0167C43.9604 10.2839 44.046 10.6374 43.9761 10.9772L43.3419 14.119C43.2337 14.6545 42.7718 15.0368 42.2389 15.0368H40.9704C42.195 16.4811 42.7887 18.2996 42.7966 20.1192C42.8045 22.3673 41.9697 24.3989 40.4431 25.8362C40.4262 25.8511 40.4093 25.8615 40.3936 25.8765V30.2724C40.3936 31.2249 39.6365 32 38.7037 32H34.7538C33.821 32 33.0639 31.2249 33.0639 30.2724V28.5058H10.9364V30.2724C10.9364 31.2249 10.1793 32 9.24647 32H5.29661C4.36604 32 3.60671 31.2249 3.60671 30.2724V25.9629C1.98666 24.4461 1.21269 22.3592 1.20255 20.2758C1.19579 18.394 1.81654 16.5087 3.11326 15.0345H1.76022C1.22508 15.0345 0.763172 14.6522 0.657272 14.1155L0.0218735 10.9749C-0.0434723 10.6374 0.0387688 10.2862 0.252823 10.0167ZM32.7361 5.78194C28.4212 2.87855 15.5791 2.87855 11.2665 5.78194C10.4283 6.34396 9.35012 8.61623 8.36209 11.3987H35.6382C34.6524 8.61738 33.5743 6.34626 32.7361 5.78194ZM37.79 20.5523C37.79 18.675 36.3006 17.1548 34.4654 17.1548C32.6279 17.1548 31.1408 18.675 31.1408 20.5523C31.1408 22.4295 32.6279 23.9509 34.4654 23.9509C36.3006 23.9509 37.79 22.4295 37.79 20.5523ZM9.49094 23.9509C11.3262 23.9509 12.8155 22.4295 12.8155 20.5523C12.8155 18.675 11.3262 17.1548 9.49094 17.1548C7.65345 17.1548 6.16634 18.675 6.16634 20.5523C6.16634 22.4295 7.65571 23.9509 9.49094 23.9509Z" fill="#1E1B1B"/>
</svg>
